<?xml version="1.0" encoding="UTF-8" standalone="no"?>
<!DOCTYPE svg PUBLIC "-//W3C//DTD SVG 1.1//EN"
 "http://www.w3.org/Graphics/SVG/1.1/DTD/svg11.dtd">
<!-- Generated by graphviz version 2.43.0 (0)
 -->
<!-- Title: %3 Pages: 1 -->
<svg width="997pt" height="895pt"
 viewBox="0.00 0.00 997.00 895.00" xmlns="http://www.w3.org/2000/svg" xmlns:xlink="http://www.w3.org/1999/xlink">
<g id="graph0" class="graph" transform="scale(1 1) rotate(0) translate(4 891)">
<title>%3</title>
<polygon fill="white" stroke="transparent" points="-4,4 -4,-891 993,-891 993,4 -4,4"/>
<!-- 0x0000000000009cb0 -->
<g id="node1" class="node">
<title>0x0000000000009cb0</title>
<polygon fill="#0d1375" stroke="#0d1375" points="335,-269 224,-269 224,-206 335,-206 335,-269"/>
<text text-anchor="middle" x="279.5" y="-257" font-family="Arial" font-size="10.00" fill="#ffffff">libz.so.1.2.11</text>
<text text-anchor="middle" x="279.5" y="-246" font-family="Arial" font-size="10.00" fill="#ffffff">0x0000000000009cb0</text>
<text text-anchor="middle" x="279.5" y="-235" font-family="Arial" font-size="10.00" fill="#ffffff">1.62%</text>
<text text-anchor="middle" x="279.5" y="-224" font-family="Arial" font-size="10.00" fill="#ffffff">(1.62%)</text>
<text text-anchor="middle" x="279.5" y="-213" font-family="Arial" font-size="10.00" fill="#ffffff">3828×</text>
</g>
<!-- 0x0000000000019cb0 -->
<g id="node2" class="node">
<title>0x0000000000019cb0</title>
<polygon fill="#e89104" stroke="#e89104" points="615,-269 504,-269 504,-206 615,-206 615,-269"/>
<text text-anchor="middle" x="559.5" y="-257" font-family="Arial" font-size="10.00" fill="#ffffff">libgomp.so.1.0.0</text>
<text text-anchor="middle" x="559.5" y="-246" font-family="Arial" font-size="10.00" fill="#ffffff">0x0000000000019cb0</text>
<text text-anchor="middle" x="559.5" y="-235" font-family="Arial" font-size="10.00" fill="#ffffff">84.52%</text>
<text text-anchor="middle" x="559.5" y="-224" font-family="Arial" font-size="10.00" fill="#ffffff">(0.00%)</text>
<text text-anchor="middle" x="559.5" y="-213" font-family="Arial" font-size="10.00" fill="#ffffff">7×</text>
</g>
<!-- find_coincidences(std::vector&lt;double, std::allocator&lt;double&gt; &gt;*, std::vector&lt;double, std::allocator&lt;double&gt; &gt;*, std::vector&lt;double, std::allocator&lt;double&gt; &gt;*, std::vector&lt;double, std::allocator&lt;double&gt; &gt;*) [clone ._omp_fn.0] -->
<g id="node3" class="node">
<title>find_coincidences(std::vector&lt;double, std::allocator&lt;double&gt; &gt;*, std::vector&lt;double, std::allocator&lt;double&gt; &gt;*, std::vector&lt;double, std::allocator&lt;double&gt; &gt;*, std::vector&lt;double, std::allocator&lt;double&gt; &gt;*) [clone ._omp_fn.0]</title>
<polygon fill="#fa2101" stroke="#fa2101" points="989,-166 0,-166 0,-103 989,-103 989,-166"/>
<text text-anchor="middle" x="494.5" y="-154" font-family="Arial" font-size="10.00" fill="#ffffff">ccanalysis</text>
<text text-anchor="middle" x="494.5" y="-143" font-family="Arial" font-size="10.00" fill="#ffffff">find_coincidences(std::vector&lt;double, std::allocator&lt;double&gt; &gt;*, std::vector&lt;double, std::allocator&lt;double&gt; &gt;*, std::vector&lt;double, std::allocator&lt;double&gt; &gt;*, std::vector&lt;double, std::allocator&lt;double&gt; &gt;*) [clone ._omp_fn.0]</text>
<text text-anchor="middle" x="494.5" y="-132" font-family="Arial" font-size="10.00" fill="#ffffff">96.80%</text>
<text text-anchor="middle" x="494.5" y="-121" font-family="Arial" font-size="10.00" fill="#ffffff">(96.04%)</text>
<text text-anchor="middle" x="494.5" y="-110" font-family="Arial" font-size="10.00" fill="#ffffff">8×</text>
</g>
<!-- 0x0000000000019cb0&#45;&gt;find_coincidences(std::vector&lt;double, std::allocator&lt;double&gt; &gt;*, std::vector&lt;double, std::allocator&lt;double&gt; &gt;*, std::vector&lt;double, std::allocator&lt;double&gt; &gt;*, std::vector&lt;double, std::allocator&lt;double&gt; &gt;*) [clone ._omp_fn.0] -->
<g id="edge1" class="edge">
<title>0x0000000000019cb0&#45;&gt;find_coincidences(std::vector&lt;double, std::allocator&lt;double&gt; &gt;*, std::vector&lt;double, std::allocator&lt;double&gt; &gt;*, std::vector&lt;double, std::allocator&lt;double&gt; &gt;*, std::vector&lt;double, std::allocator&lt;double&gt; &gt;*) [clone ._omp_fn.0]</title>
<path fill="none" stroke="#e89104" stroke-width="3.38" d="M539.82,-205.92C533.39,-195.93 526.16,-184.7 519.4,-174.19"/>
<polygon fill="#e89104" stroke="#e89104" stroke-width="3.38" points="522.02,-172.32 514.34,-166.32 516.61,-175.8 522.02,-172.32"/>
<text text-anchor="middle" x="550.5" y="-189" font-family="Arial" font-size="10.00" fill="#e89104">84.49%</text>
<text text-anchor="middle" x="550.5" y="-178" font-family="Arial" font-size="10.00" fill="#e89104">7×</text>
</g>
<!-- memcpy@GLIBC_2.2.5 -->
<g id="node17" class="node">
<title>memcpy@GLIBC_2.2.5</title>
<polygon fill="#0d1074" stroke="#0d1074" points="555.5,-63 433.5,-63 433.5,0 555.5,0 555.5,-63"/>
<text text-anchor="middle" x="494.5" y="-51" font-family="Arial" font-size="10.00" fill="#ffffff">libc&#45;2.31.so</text>
<text text-anchor="middle" x="494.5" y="-40" font-family="Arial" font-size="10.00" fill="#ffffff">memcpy@GLIBC_2.2.5</text>
<text text-anchor="middle" x="494.5" y="-29" font-family="Arial" font-size="10.00" fill="#ffffff">0.86%</text>
<text text-anchor="middle" x="494.5" y="-18" font-family="Arial" font-size="10.00" fill="#ffffff">(0.86%)</text>
<text text-anchor="middle" x="494.5" y="-7" font-family="Arial" font-size="10.00" fill="#ffffff">17211×</text>
</g>
<!-- find_coincidences(std::vector&lt;double, std::allocator&lt;double&gt; &gt;*, std::vector&lt;double, std::allocator&lt;double&gt; &gt;*, std::vector&lt;double, std::allocator&lt;double&gt; &gt;*, std::vector&lt;double, std::allocator&lt;double&gt; &gt;*) [clone ._omp_fn.0]&#45;&gt;memcpy@GLIBC_2.2.5 -->
<g id="edge13" class="edge">
<title>find_coincidences(std::vector&lt;double, std::allocator&lt;double&gt; &gt;*, std::vector&lt;double, std::allocator&lt;double&gt; &gt;*, std::vector&lt;double, std::allocator&lt;double&gt; &gt;*, std::vector&lt;double, std::allocator&lt;double&gt; &gt;*) [clone ._omp_fn.0]&#45;&gt;memcpy@GLIBC_2.2.5</title>
<path fill="none" stroke="#0d1074" stroke-width="0.5" d="M494.5,-102.92C494.5,-91.56 494.5,-78.59 494.5,-66.9"/>
<polygon fill="#0d1074" stroke="#0d1074" stroke-width="0.5" points="495.73,-66.82 494.5,-63.32 493.28,-66.82 495.73,-66.82"/>
<text text-anchor="middle" x="508.5" y="-86" font-family="Arial" font-size="10.00" fill="#0d1074">0.76%</text>
<text text-anchor="middle" x="508.5" y="-75" font-family="Arial" font-size="10.00" fill="#0d1074">802×</text>
</g>
<!-- 0x000000000001a040 -->
<g id="node4" class="node">
<title>0x000000000001a040</title>
<polygon fill="#e89104" stroke="#e89104" points="622,-784 511,-784 511,-721 622,-721 622,-784"/>
<text text-anchor="middle" x="566.5" y="-772" font-family="Arial" font-size="10.00" fill="#ffffff">libgomp.so.1.0.0</text>
<text text-anchor="middle" x="566.5" y="-761" font-family="Arial" font-size="10.00" fill="#ffffff">0x000000000001a040</text>
<text text-anchor="middle" x="566.5" y="-750" font-family="Arial" font-size="10.00" fill="#ffffff">84.53%</text>
<text text-anchor="middle" x="566.5" y="-739" font-family="Arial" font-size="10.00" fill="#ffffff">(0.00%)</text>
<text text-anchor="middle" x="566.5" y="-728" font-family="Arial" font-size="10.00" fill="#ffffff">1×</text>
</g>
<!-- pthread_create@@GLIBC_2.2.5 -->
<g id="node5" class="node">
<title>pthread_create@@GLIBC_2.2.5</title>
<polygon fill="#e89104" stroke="#e89104" points="658,-681 499,-681 499,-618 658,-618 658,-681"/>
<text text-anchor="middle" x="578.5" y="-669" font-family="Arial" font-size="10.00" fill="#ffffff">libpthread&#45;2.31.so</text>
<text text-anchor="middle" x="578.5" y="-658" font-family="Arial" font-size="10.00" fill="#ffffff">pthread_create@@GLIBC_2.2.5</text>
<text text-anchor="middle" x="578.5" y="-647" font-family="Arial" font-size="10.00" fill="#ffffff">84.52%</text>
<text text-anchor="middle" x="578.5" y="-636" font-family="Arial" font-size="10.00" fill="#ffffff">(0.00%)</text>
<text text-anchor="middle" x="578.5" y="-625" font-family="Arial" font-size="10.00" fill="#ffffff">6×</text>
</g>
<!-- 0x000000000001a040&#45;&gt;pthread_create@@GLIBC_2.2.5 -->
<g id="edge2" class="edge">
<title>0x000000000001a040&#45;&gt;pthread_create@@GLIBC_2.2.5</title>
<path fill="none" stroke="#e89104" stroke-width="3.38" d="M570.13,-720.92C571.26,-711.42 572.52,-700.79 573.72,-690.74"/>
<polygon fill="#e89104" stroke="#e89104" stroke-width="3.38" points="576.95,-690.84 574.84,-681.32 570.55,-690.08 576.95,-690.84"/>
<text text-anchor="middle" x="590.5" y="-704" font-family="Arial" font-size="10.00" fill="#e89104">84.52%</text>
<text text-anchor="middle" x="590.5" y="-693" font-family="Arial" font-size="10.00" fill="#e89104">6×</text>
</g>
<!-- create_thread.constprop.0 -->
<g id="node16" class="node">
<title>create_thread.constprop.0</title>
<polygon fill="#e89104" stroke="#e89104" points="636.5,-578 506.5,-578 506.5,-515 636.5,-515 636.5,-578"/>
<text text-anchor="middle" x="571.5" y="-566" font-family="Arial" font-size="10.00" fill="#ffffff">libpthread&#45;2.31.so</text>
<text text-anchor="middle" x="571.5" y="-555" font-family="Arial" font-size="10.00" fill="#ffffff">create_thread.constprop.0</text>
<text text-anchor="middle" x="571.5" y="-544" font-family="Arial" font-size="10.00" fill="#ffffff">84.52%</text>
<text text-anchor="middle" x="571.5" y="-533" font-family="Arial" font-size="10.00" fill="#ffffff">(0.00%)</text>
<text text-anchor="middle" x="571.5" y="-522" font-family="Arial" font-size="10.00" fill="#ffffff">7×</text>
</g>
<!-- pthread_create@@GLIBC_2.2.5&#45;&gt;create_thread.constprop.0 -->
<g id="edge15" class="edge">
<title>pthread_create@@GLIBC_2.2.5&#45;&gt;create_thread.constprop.0</title>
<path fill="none" stroke="#e89104" stroke-width="3.38" d="M576.38,-617.92C575.72,-608.42 574.99,-597.79 574.29,-587.74"/>
<polygon fill="#e89104" stroke="#e89104" stroke-width="3.38" points="577.48,-587.28 573.64,-578.32 571.06,-587.72 577.48,-587.28"/>
<text text-anchor="middle" x="592.5" y="-601" font-family="Arial" font-size="10.00" fill="#e89104">84.52%</text>
<text text-anchor="middle" x="592.5" y="-590" font-family="Arial" font-size="10.00" fill="#e89104">7×</text>
</g>
<!-- 0x00000000000a4280 -->
<g id="node6" class="node">
<title>0x00000000000a4280</title>
<polygon fill="#0d1976" stroke="#0d1976" points="395.5,-681 273.5,-681 273.5,-618 395.5,-618 395.5,-681"/>
<text text-anchor="middle" x="334.5" y="-669" font-family="Arial" font-size="10.00" fill="#ffffff">libhdf5_serial.so.103.2.0</text>
<text text-anchor="middle" x="334.5" y="-658" font-family="Arial" font-size="10.00" fill="#ffffff">0x00000000000a4280</text>
<text text-anchor="middle" x="334.5" y="-647" font-family="Arial" font-size="10.00" fill="#ffffff">2.87%</text>
<text text-anchor="middle" x="334.5" y="-636" font-family="Arial" font-size="10.00" fill="#ffffff">(0.00%)</text>
<text text-anchor="middle" x="334.5" y="-625" font-family="Arial" font-size="10.00" fill="#ffffff">530×</text>
</g>
<!-- H5Z_pipeline -->
<g id="node7" class="node">
<title>H5Z_pipeline</title>
<polygon fill="#0d1976" stroke="#0d1976" points="395.5,-578 273.5,-578 273.5,-515 395.5,-515 395.5,-578"/>
<text text-anchor="middle" x="334.5" y="-566" font-family="Arial" font-size="10.00" fill="#ffffff">libhdf5_serial.so.103.2.0</text>
<text text-anchor="middle" x="334.5" y="-555" font-family="Arial" font-size="10.00" fill="#ffffff">H5Z_pipeline</text>
<text text-anchor="middle" x="334.5" y="-544" font-family="Arial" font-size="10.00" fill="#ffffff">2.87%</text>
<text text-anchor="middle" x="334.5" y="-533" font-family="Arial" font-size="10.00" fill="#ffffff">(0.00%)</text>
<text text-anchor="middle" x="334.5" y="-522" font-family="Arial" font-size="10.00" fill="#ffffff">529×</text>
</g>
<!-- 0x00000000000a4280&#45;&gt;H5Z_pipeline -->
<g id="edge3" class="edge">
<title>0x00000000000a4280&#45;&gt;H5Z_pipeline</title>
<path fill="none" stroke="#0d1976" stroke-width="0.5" d="M334.5,-617.92C334.5,-606.56 334.5,-593.59 334.5,-581.9"/>
<polygon fill="#0d1976" stroke="#0d1976" stroke-width="0.5" points="335.73,-581.82 334.5,-578.32 333.28,-581.82 335.73,-581.82"/>
<text text-anchor="middle" x="348.5" y="-601" font-family="Arial" font-size="10.00" fill="#0d1976">2.87%</text>
<text text-anchor="middle" x="348.5" y="-590" font-family="Arial" font-size="10.00" fill="#0d1976">529×</text>
</g>
<!-- 0x00000000002a3060 -->
<g id="node9" class="node">
<title>0x00000000002a3060</title>
<polygon fill="#0d1676" stroke="#0d1676" points="340.5,-475 218.5,-475 218.5,-412 340.5,-412 340.5,-475"/>
<text text-anchor="middle" x="279.5" y="-463" font-family="Arial" font-size="10.00" fill="#ffffff">libhdf5_serial.so.103.2.0</text>
<text text-anchor="middle" x="279.5" y="-452" font-family="Arial" font-size="10.00" fill="#ffffff">0x00000000002a3060</text>
<text text-anchor="middle" x="279.5" y="-441" font-family="Arial" font-size="10.00" fill="#ffffff">2.22%</text>
<text text-anchor="middle" x="279.5" y="-430" font-family="Arial" font-size="10.00" fill="#ffffff">(0.00%)</text>
<text text-anchor="middle" x="279.5" y="-419" font-family="Arial" font-size="10.00" fill="#ffffff">530×</text>
</g>
<!-- H5Z_pipeline&#45;&gt;0x00000000002a3060 -->
<g id="edge9" class="edge">
<title>H5Z_pipeline&#45;&gt;0x00000000002a3060</title>
<path fill="none" stroke="#0d1676" stroke-width="0.5" d="M317.85,-514.92C311.61,-503.46 304.48,-490.36 298.07,-478.6"/>
<polygon fill="#0d1676" stroke="#0d1676" stroke-width="0.5" points="299.03,-477.81 296.28,-475.32 296.88,-478.98 299.03,-477.81"/>
<text text-anchor="middle" x="326.5" y="-498" font-family="Arial" font-size="10.00" fill="#0d1676">2.22%</text>
<text text-anchor="middle" x="326.5" y="-487" font-family="Arial" font-size="10.00" fill="#0d1676">530×</text>
</g>
<!-- 0x00000000002a6a00 -->
<g id="node11" class="node">
<title>0x00000000002a6a00</title>
<polygon fill="#0d0f74" stroke="#0d0f74" points="471.5,-475 349.5,-475 349.5,-412 471.5,-412 471.5,-475"/>
<text text-anchor="middle" x="410.5" y="-463" font-family="Arial" font-size="10.00" fill="#ffffff">libhdf5_serial.so.103.2.0</text>
<text text-anchor="middle" x="410.5" y="-452" font-family="Arial" font-size="10.00" fill="#ffffff">0x00000000002a6a00</text>
<text text-anchor="middle" x="410.5" y="-441" font-family="Arial" font-size="10.00" fill="#ffffff">0.65%</text>
<text text-anchor="middle" x="410.5" y="-430" font-family="Arial" font-size="10.00" fill="#ffffff">(0.65%)</text>
<text text-anchor="middle" x="410.5" y="-419" font-family="Arial" font-size="10.00" fill="#ffffff">530×</text>
</g>
<!-- H5Z_pipeline&#45;&gt;0x00000000002a6a00 -->
<g id="edge10" class="edge">
<title>H5Z_pipeline&#45;&gt;0x00000000002a6a00</title>
<path fill="none" stroke="#0d0f74" stroke-width="0.5" d="M357.51,-514.92C366.21,-503.36 376.16,-490.14 385.07,-478.3"/>
<polygon fill="#0d0f74" stroke="#0d0f74" stroke-width="0.5" points="386.18,-478.86 387.31,-475.32 384.22,-477.38 386.18,-478.86"/>
<text text-anchor="middle" x="393.5" y="-498" font-family="Arial" font-size="10.00" fill="#0d0f74">0.65%</text>
<text text-anchor="middle" x="393.5" y="-487" font-family="Arial" font-size="10.00" fill="#0d0f74">530×</text>
</g>
<!-- 0x00000000000a64c0 -->
<g id="node8" class="node">
<title>0x00000000000a64c0</title>
<polygon fill="#0d1976" stroke="#0d1976" points="395.5,-784 273.5,-784 273.5,-721 395.5,-721 395.5,-784"/>
<text text-anchor="middle" x="334.5" y="-772" font-family="Arial" font-size="10.00" fill="#ffffff">libhdf5_serial.so.103.2.0</text>
<text text-anchor="middle" x="334.5" y="-761" font-family="Arial" font-size="10.00" fill="#ffffff">0x00000000000a64c0</text>
<text text-anchor="middle" x="334.5" y="-750" font-family="Arial" font-size="10.00" fill="#ffffff">2.90%</text>
<text text-anchor="middle" x="334.5" y="-739" font-family="Arial" font-size="10.00" fill="#ffffff">(0.00%)</text>
<text text-anchor="middle" x="334.5" y="-728" font-family="Arial" font-size="10.00" fill="#ffffff">1×</text>
</g>
<!-- 0x00000000000a64c0&#45;&gt;0x00000000000a4280 -->
<g id="edge4" class="edge">
<title>0x00000000000a64c0&#45;&gt;0x00000000000a4280</title>
<path fill="none" stroke="#0d1976" stroke-width="0.5" d="M334.5,-720.92C334.5,-709.56 334.5,-696.59 334.5,-684.9"/>
<polygon fill="#0d1976" stroke="#0d1976" stroke-width="0.5" points="335.73,-684.82 334.5,-681.32 333.28,-684.82 335.73,-684.82"/>
<text text-anchor="middle" x="348.5" y="-704" font-family="Arial" font-size="10.00" fill="#0d1976">2.87%</text>
<text text-anchor="middle" x="348.5" y="-693" font-family="Arial" font-size="10.00" fill="#0d1976">530×</text>
</g>
<!-- inflate -->
<g id="node10" class="node">
<title>inflate</title>
<polygon fill="#0d1676" stroke="#0d1676" points="316.5,-372 242.5,-372 242.5,-309 316.5,-309 316.5,-372"/>
<text text-anchor="middle" x="279.5" y="-360" font-family="Arial" font-size="10.00" fill="#ffffff">libz.so.1.2.11</text>
<text text-anchor="middle" x="279.5" y="-349" font-family="Arial" font-size="10.00" fill="#ffffff">inflate</text>
<text text-anchor="middle" x="279.5" y="-338" font-family="Arial" font-size="10.00" fill="#ffffff">2.20%</text>
<text text-anchor="middle" x="279.5" y="-327" font-family="Arial" font-size="10.00" fill="#ffffff">(0.02%)</text>
<text text-anchor="middle" x="279.5" y="-316" font-family="Arial" font-size="10.00" fill="#ffffff">2121×</text>
</g>
<!-- 0x00000000002a3060&#45;&gt;inflate -->
<g id="edge5" class="edge">
<title>0x00000000002a3060&#45;&gt;inflate</title>
<path fill="none" stroke="#0d1676" stroke-width="0.5" d="M279.5,-411.92C279.5,-400.56 279.5,-387.59 279.5,-375.9"/>
<polygon fill="#0d1676" stroke="#0d1676" stroke-width="0.5" points="280.73,-375.82 279.5,-372.32 278.28,-375.82 280.73,-375.82"/>
<text text-anchor="middle" x="293.5" y="-395" font-family="Arial" font-size="10.00" fill="#0d1676">2.20%</text>
<text text-anchor="middle" x="293.5" y="-384" font-family="Arial" font-size="10.00" fill="#0d1676">2121×</text>
</g>
<!-- inflate&#45;&gt;0x0000000000009cb0 -->
<g id="edge14" class="edge">
<title>inflate&#45;&gt;0x0000000000009cb0</title>
<path fill="none" stroke="#0d1375" stroke-width="0.5" d="M279.5,-308.92C279.5,-297.56 279.5,-284.59 279.5,-272.9"/>
<polygon fill="#0d1375" stroke="#0d1375" stroke-width="0.5" points="280.73,-272.82 279.5,-269.32 278.28,-272.82 280.73,-272.82"/>
<text text-anchor="middle" x="293.5" y="-292" font-family="Arial" font-size="10.00" fill="#0d1375">1.62%</text>
<text text-anchor="middle" x="293.5" y="-281" font-family="Arial" font-size="10.00" fill="#0d1375">3828×</text>
</g>
<!-- GOMP_parallel -->
<g id="node12" class="node">
<title>GOMP_parallel</title>
<polygon fill="#fa2001" stroke="#fa2001" points="555,-887 466,-887 466,-824 555,-824 555,-887"/>
<text text-anchor="middle" x="510.5" y="-875" font-family="Arial" font-size="10.00" fill="#ffffff">libgomp.so.1.0.0</text>
<text text-anchor="middle" x="510.5" y="-864" font-family="Arial" font-size="10.00" fill="#ffffff">GOMP_parallel</text>
<text text-anchor="middle" x="510.5" y="-853" font-family="Arial" font-size="10.00" fill="#ffffff">96.84%</text>
<text text-anchor="middle" x="510.5" y="-842" font-family="Arial" font-size="10.00" fill="#ffffff">(0.00%)</text>
<text text-anchor="middle" x="510.5" y="-831" font-family="Arial" font-size="10.00" fill="#ffffff">0×</text>
</g>
<!-- GOMP_parallel&#45;&gt;find_coincidences(std::vector&lt;double, std::allocator&lt;double&gt; &gt;*, std::vector&lt;double, std::allocator&lt;double&gt; &gt;*, std::vector&lt;double, std::allocator&lt;double&gt; &gt;*, std::vector&lt;double, std::allocator&lt;double&gt; &gt;*) [clone ._omp_fn.0] -->
<g id="edge7" class="edge">
<title>GOMP_parallel&#45;&gt;find_coincidences(std::vector&lt;double, std::allocator&lt;double&gt; &gt;*, std::vector&lt;double, std::allocator&lt;double&gt; &gt;*, std::vector&lt;double, std::allocator&lt;double&gt; &gt;*, std::vector&lt;double, std::allocator&lt;double&gt; &gt;*) [clone ._omp_fn.0]</title>
<path fill="none" stroke="#0d4783" stroke-width="0.5" d="M498.73,-823.6C492.25,-803.85 485.5,-777.52 485.5,-753.5 485.5,-753.5 485.5,-753.5 485.5,-236.5 485.5,-214.38 487.67,-189.65 489.87,-170.2"/>
<polygon fill="#0d4783" stroke="#0d4783" stroke-width="0.5" points="491.13,-170 490.32,-166.38 488.7,-169.72 491.13,-170"/>
<text text-anchor="middle" x="502.5" y="-498" font-family="Arial" font-size="10.00" fill="#0d4783">12.31%</text>
<text text-anchor="middle" x="502.5" y="-487" font-family="Arial" font-size="10.00" fill="#0d4783">1×</text>
</g>
<!-- GOMP_parallel&#45;&gt;0x000000000001a040 -->
<g id="edge6" class="edge">
<title>GOMP_parallel&#45;&gt;0x000000000001a040</title>
<path fill="none" stroke="#e89104" stroke-width="3.38" d="M527.45,-823.92C532.94,-814.03 539.1,-802.92 544.88,-792.49"/>
<polygon fill="#e89104" stroke="#e89104" stroke-width="3.38" points="547.77,-793.93 549.41,-784.32 542.13,-790.81 547.77,-793.93"/>
<text text-anchor="middle" x="561.5" y="-807" font-family="Arial" font-size="10.00" fill="#e89104">84.53%</text>
<text text-anchor="middle" x="561.5" y="-796" font-family="Arial" font-size="10.00" fill="#e89104">1×</text>
</g>
<!-- H5D__read -->
<g id="node13" class="node">
<title>H5D__read</title>
<polygon fill="#0d1976" stroke="#0d1976" points="395.5,-887 273.5,-887 273.5,-824 395.5,-824 395.5,-887"/>
<text text-anchor="middle" x="334.5" y="-875" font-family="Arial" font-size="10.00" fill="#ffffff">libhdf5_serial.so.103.2.0</text>
<text text-anchor="middle" x="334.5" y="-864" font-family="Arial" font-size="10.00" fill="#ffffff">H5D__read</text>
<text text-anchor="middle" x="334.5" y="-853" font-family="Arial" font-size="10.00" fill="#ffffff">2.91%</text>
<text text-anchor="middle" x="334.5" y="-842" font-family="Arial" font-size="10.00" fill="#ffffff">(0.00%)</text>
<text text-anchor="middle" x="334.5" y="-831" font-family="Arial" font-size="10.00" fill="#ffffff">0×</text>
</g>
<!-- H5D__read&#45;&gt;0x00000000000a64c0 -->
<g id="edge8" class="edge">
<title>H5D__read&#45;&gt;0x00000000000a64c0</title>
<path fill="none" stroke="#0d1976" stroke-width="0.5" d="M334.5,-823.92C334.5,-812.56 334.5,-799.59 334.5,-787.9"/>
<polygon fill="#0d1976" stroke="#0d1976" stroke-width="0.5" points="335.73,-787.82 334.5,-784.32 333.28,-787.82 335.73,-787.82"/>
<text text-anchor="middle" x="348.5" y="-807" font-family="Arial" font-size="10.00" fill="#0d1976">2.90%</text>
<text text-anchor="middle" x="348.5" y="-796" font-family="Arial" font-size="10.00" fill="#0d1976">1×</text>
</g>
<!-- clone -->
<g id="node14" class="node">
<title>clone</title>
<polygon fill="#e89104" stroke="#e89104" points="601,-475 534,-475 534,-412 601,-412 601,-475"/>
<text text-anchor="middle" x="567.5" y="-463" font-family="Arial" font-size="10.00" fill="#ffffff">libc&#45;2.31.so</text>
<text text-anchor="middle" x="567.5" y="-452" font-family="Arial" font-size="10.00" fill="#ffffff">clone</text>
<text text-anchor="middle" x="567.5" y="-441" font-family="Arial" font-size="10.00" fill="#ffffff">84.52%</text>
<text text-anchor="middle" x="567.5" y="-430" font-family="Arial" font-size="10.00" fill="#ffffff">(0.00%)</text>
<text text-anchor="middle" x="567.5" y="-419" font-family="Arial" font-size="10.00" fill="#ffffff">6×</text>
</g>
<!-- start_thread -->
<g id="node15" class="node">
<title>start_thread</title>
<polygon fill="#e89104" stroke="#e89104" points="612.5,-372 518.5,-372 518.5,-309 612.5,-309 612.5,-372"/>
<text text-anchor="middle" x="565.5" y="-360" font-family="Arial" font-size="10.00" fill="#ffffff">libpthread&#45;2.31.so</text>
<text text-anchor="middle" x="565.5" y="-349" font-family="Arial" font-size="10.00" fill="#ffffff">start_thread</text>
<text text-anchor="middle" x="565.5" y="-338" font-family="Arial" font-size="10.00" fill="#ffffff">84.52%</text>
<text text-anchor="middle" x="565.5" y="-327" font-family="Arial" font-size="10.00" fill="#ffffff">(0.00%)</text>
<text text-anchor="middle" x="565.5" y="-316" font-family="Arial" font-size="10.00" fill="#ffffff">7×</text>
</g>
<!-- clone&#45;&gt;start_thread -->
<g id="edge11" class="edge">
<title>clone&#45;&gt;start_thread</title>
<path fill="none" stroke="#e89104" stroke-width="3.38" d="M566.89,-411.92C566.71,-402.42 566.5,-391.79 566.3,-381.74"/>
<polygon fill="#e89104" stroke="#e89104" stroke-width="3.38" points="569.51,-381.46 566.11,-372.32 563.07,-381.58 569.51,-381.46"/>
<text text-anchor="middle" x="583.5" y="-395" font-family="Arial" font-size="10.00" fill="#e89104">84.52%</text>
<text text-anchor="middle" x="583.5" y="-384" font-family="Arial" font-size="10.00" fill="#e89104">7×</text>
</g>
<!-- start_thread&#45;&gt;0x0000000000019cb0 -->
<g id="edge16" class="edge">
<title>start_thread&#45;&gt;0x0000000000019cb0</title>
<path fill="none" stroke="#e89104" stroke-width="3.38" d="M563.68,-308.92C563.12,-299.42 562.49,-288.79 561.89,-278.74"/>
<polygon fill="#e89104" stroke="#e89104" stroke-width="3.38" points="565.09,-278.31 561.33,-269.32 558.66,-278.7 565.09,-278.31"/>
<text text-anchor="middle" x="579.5" y="-292" font-family="Arial" font-size="10.00" fill="#e89104">84.52%</text>
<text text-anchor="middle" x="579.5" y="-281" font-family="Arial" font-size="10.00" fill="#e89104">7×</text>
</g>
<!-- create_thread.constprop.0&#45;&gt;clone -->
<g id="edge12" class="edge">
<title>create_thread.constprop.0&#45;&gt;clone</title>
<path fill="none" stroke="#e89104" stroke-width="3.38" d="M570.29,-514.92C569.91,-505.42 569.49,-494.79 569.09,-484.74"/>
<polygon fill="#e89104" stroke="#e89104" stroke-width="3.38" points="572.3,-484.39 568.72,-475.32 565.87,-484.64 572.3,-484.39"/>
<text text-anchor="middle" x="586.5" y="-498" font-family="Arial" font-size="10.00" fill="#e89104">84.52%</text>
<text text-anchor="middle" x="586.5" y="-487" font-family="Arial" font-size="10.00" fill="#e89104">6×</text>
</g>
</g>
</svg>
